<?xml version="1.0" encoding="UTF-8"?>
<svg width="487px" height="156px" viewBox="0 0 487 156" version="1.1" xmlns="http://www.w3.org/2000/svg" xmlns:xlink="http://www.w3.org/1999/xlink">
    <!-- Generator: Sketch 43.2 (39069) - http://www.bohemiancoding.com/sketch -->
    <title>react_baqend</title>
    <desc>Created with Sketch.</desc>
    <defs>
        <path d="M14.5,49.5 C14.8,48.7 15.1,47.8 15.3,46.9 L15.3,46.9 C17.1,41 14.2,38 12.4,35 L12.4,35 C10.4,31.6 15.4,27.7 14.8,33.8 L14.8,33.8 C14.1,40.7 18.2,42.7 18.2,42.7 L18.2,42.7 C13.3,36.5 17.6,33.6 17,29.5 L17,29.5 C16.7,27.3 14.8,27.1 13.7,26.4 L13.7,26.4 C13.4,26.2 13.1,25.8 13.1,25.2 L13.1,25.2 C13.1,24.4 13.9,23.3 14,23.2 L14,23.2 C14.1,23.1 14.6,22.7 14.7,23.5 L14.7,23.5 C14.8,24.2 15,24.4 15,24.4 L15,24.4 C15.1,24.5 15.2,24.6 15.3,24.7 L15.3,24.7 C17,25.7 19,26.7 18.1,32.3 L18.1,32.3 C17.1,38.7 19.7,39.3 19.7,39.3 L19.7,39.3 C19.7,39.3 18.1,37.2 19,33.7 L19,33.7 C20,30.2 19.7,27.2 17.8,24.6 L17.8,24.6 C15.8,22 22.3,18.7 20.7,24.7 L20.7,24.7 C19,31.1 21.6,31 21.6,31 L21.6,31 C21.6,31 19.7,30.6 21.6,25.8 L21.6,25.8 C24.5,18.3 18.3,18.9 19,16.3 L19,16.3 C19.6,14 22,15.7 22.4,17.9 L22.4,17.9 C22.8,12.3 17.7,15.2 19.6,9.7 L19.6,9.7 C22,2.7 19.1,0.1 19.1,0.1 L19.1,0.1 C20.5,3.9 18.8,9.5 17.2,11.5 L17.2,11.5 C16.2,12.8 14.7,14.6 12.6,13.7 L12.6,13.7 C8.2,11.8 12.6,8.6 12.6,8.6 L10.3,6 C8.9,7.9 8.4,9.6 9.3,13.7 L9.3,13.7 C9.9,16.7 5.7,15.1 4.1,13.9 L4.1,13.9 C0.4,11.2 0.7,5.5 0.7,5.5 L0.7,5.5 C0.1,7.9 0.6,13.1 4,16 L4,16 C6.2,17.9 5.2,20.4 4.2,23 L4.2,23 C3.4,25 2.5,27.1 3.3,28.9 L3.3,28.9 C3.5,25.3 5.3,22.8 6.4,22.4 L6.4,22.4 C7.2,22.1 7.7,22.9 6.9,25.2 L6.9,25.2 C4.2,33.2 9.6,34.4 9.6,34.4 L9.6,34.4 C8.1,33.4 7.1,31.9 7.7,28.3 L7.7,28.3 C8.4,25.2 9,24.1 9.5,24 L9.5,24 C10.9,23.9 9.3,27.6 9.3,27.6 L9.3,27.6 C9.3,27.6 11.8,25.2 10.4,22 L10.4,22 C10,21 10.2,20 10.8,19.8 L10.8,19.8 C11.4,19.6 12,20.1 12.2,20.9 L12.2,20.9 C12.5,22.4 11.6,25.1 10.3,26.8 L10.3,26.8 C7.4,30.4 9,32.1 9.5,32.4 L9.5,32.4 C10.4,33.6 10.3,35.2 10,36.5 L10,36.5 C7.6,42.1 11.9,43.5 11.9,43.5 L11.9,43.5 C9.1,42.1 9.4,36.4 12.1,39.2 L12.1,39.2 C14,41.2 13.5,45 13,47 L13,47 C13,47.1 12.9,47.2 12.9,47.4 L12.9,47.4 C8.9,58.7 15.4,60.3 15.4,60.3 L15.4,60.3 C11.8,57.5 13,54.1 14.5,49.5" id="path-1"></path>
        <polygon id="path-3" points="51 0 54.4 66.6 4.1 76.4 0.8 9.8"></polygon>
        <linearGradient x1="50.6794776%" y1="21.1508121%" x2="56.0686567%" y2="57.8221371%" id="linearGradient-5">
            <stop stop-color="#FFFF00" offset="0%"></stop>
            <stop stop-color="#F15A24" offset="100%"></stop>
        </linearGradient>
        <path d="M18.9,14.2 C19.5,11.9 22.2,13.4 22.4,14.4 L22.4,14.4 C22.5,12.8 20.3,12.7 19.3,11 L19.3,11 C18.2,9.2 21.7,4.3 20.1,0.1 L20.1,0.1 C20.8,3.2 18.6,12.2 13.9,12.5 L13.9,12.5 C9.9,12.8 9.7,7 9.9,5.5 L9.9,5.5 C9.3,6.2 9.5,7.8 9.7,9.3 L9.7,9.3 C10,11.4 10.2,13.6 8.5,14 L8.5,14 C6.7,14.3 2.4,12.5 0.9,7.7 L0.9,7.7 C1.2,13.6 7.8,14 5.3,18.4 L5.3,18.4 C5,19 4.4,20.7 4.2,21.9 L4.2,21.9 C4.2,21.9 6.5,15.7 7.3,18.8 L7.3,18.8 C8.1,21.9 14.5,11.4 13.2,18.2 L13.2,18.2 C13.6,17.5 15.6,14.2 15.6,17.3 L15.6,17.3 C15.6,20 16.9,21.2 16.9,21.2 L16.9,21.2 C17,16.5 20.3,17.7 21.1,18.4 L21.1,18.4 C21.1,17.4 18.1,17 18.9,14.2" id="path-6"></path>
        <polygon id="path-8" points="29.5 7.1 21.6 31.3 0.1 25 8 0.9"></polygon>
        <linearGradient x1="57.670068%" y1="28.6836358%" x2="28.857483%" y2="108.401023%" id="linearGradient-10">
            <stop stop-color="#FFFF00" offset="0%"></stop>
            <stop stop-color="#F8AB12" offset="46.95%"></stop>
            <stop stop-color="#F3711F" offset="82.85%"></stop>
            <stop stop-color="#F15A24" offset="100%"></stop>
        </linearGradient>
    </defs>
    <g id="Page-1" stroke="none" stroke-width="1" fill="none" fill-rule="evenodd">
        <g id="ionic_baqend" transform="translate(0.000000, -2.000000)">
            <g id="68747470733a2f2f63646e2e7261776769742e636f6d2f426171656e642f616e67756c6172322d737461727465722f6d61737465722f7372632f6173736574732f416e67756c61722b426171656e642e737667" transform="translate(180.000000, 33.000000)">
                <g id="Group" transform="translate(155.000000, 65.000000)">
                    <g id="Clipped">
                        <g>
                            <mask id="mask-2" fill="white">
                                <use xlink:href="#path-1"></use>
                            </mask>
                            <g id="path-1"></g>
                            <g id="Group" mask="url(#mask-2)">
                                <g transform="translate(-18.000000, -12.000000)" id="Shape-Clipped">
                                    <g>
                                        <mask id="mask-4" fill="white">
                                            <use xlink:href="#path-3"></use>
                                        </mask>
                                        <g id="path-3"></g>
                                        <polygon id="Shape" fill="url(#linearGradient-5)" mask="url(#mask-4)" points="51 0 54.4 66.6 4.1 76.4 0.8 9.8"></polygon>
                                    </g>
                                </g>
                            </g>
                        </g>
                    </g>
                    <g id="Clipped" transform="translate(0.000000, 2.000000)">
                        <g>
                            <mask id="mask-7" fill="white">
                                <use xlink:href="#path-6"></use>
                            </mask>
                            <g id="path-6"></g>
                            <g id="Group" mask="url(#mask-7)">
                                <g transform="translate(-3.000000, -5.000000)" id="Shape-Clipped">
                                    <g>
                                        <mask id="mask-9" fill="white">
                                            <use xlink:href="#path-8"></use>
                                        </mask>
                                        <g id="path-8"></g>
                                        <polygon id="Shape" fill="url(#linearGradient-10)" mask="url(#mask-9)" points="29.5 7.1 21.6 31.3 0.1 25 8 0.9"></polygon>
                                    </g>
                                </g>
                            </g>
                        </g>
                    </g>
                </g>
                <g id="Group" transform="translate(66.000000, 0.000000)" fill-rule="nonzero">
                    <path d="M0,14.4 C4,13.5 9.2,13.1 14.9,13.1 C21.2,13.1 27.3,13.9 32,17.9 C35.6,20.9 37.1,25.4 37.1,30.1 C37.1,36.1 34,41.9 27.3,44.8 L27.3,45.2 C35.1,47.4 39.3,53.9 39.3,61.3 C39.3,66.9 37.5,71.2 34.3,74.5 C30.3,78.9 23.5,81.3 12.2,81.3 C7.2,81.3 3,81 0,80.6 L0,14.4 L0,14.4 Z M13.1,41.1 L15.9,41.1 C20.6,41.1 24.2,37.1 24.2,31.6 C24.2,26.7 21.9,22.9 16.5,22.9 C15.1,22.9 13.9,23 13.1,23.3 L13.1,41.1 L13.1,41.1 Z M13.1,71 C13.9,71.2 14.8,71.2 16,71.2 C21.3,71.2 25.7,68 25.7,61.1 C25.7,54.4 21.1,50.9 15.9,50.8 L13.1,50.8 L13.1,71 L13.1,71 Z" id="Shape" fill="#272223"></path>
                    <path d="M64,80.8 L63.3,76 L63.1,76 C60.4,79.8 56.6,81.6 52.3,81.6 C44.9,81.6 39.4,75.4 39.4,66.7 C39.4,53.9 50.7,48.6 61.8,48.5 L61.8,47.4 C61.8,43.6 59.5,40.8 54.9,40.8 C51,40.8 47.8,41.8 44.9,43.6 L42.5,34.8 C45.2,33.2 50.9,31.1 57.7,31.1 C72.6,31.1 75,41.5 75,51.4 L75,69.6 C75,73.5 75.2,77.5 75.8,80.8 L64,80.8 L64,80.8 Z M62.2,57 C57.8,57.1 51.8,58.5 51.8,65.3 C51.8,70.2 54.5,72 56.5,72 C58.6,72 61,70.7 61.9,67.8 C62.1,67.1 62.2,66.3 62.2,65.5 L62.2,57 L62.2,57 Z" id="Shape" fill="#272223"></path>
                    <path d="M123.2,91.8 C116.8,89.4 109.7,86 104.2,83 C102.5,82.2 101.3,81.6 100.7,81.6 C86.3,81.6 78.6,68.6 78.6,46.6 C78.6,28.5 93,13.3 102.1,-7.10542736e-15 C109.2,12.7 123.4,30.5 123.4,45.9 C123.4,62.6 120.7,73 113.8,76.4 L113.8,76.9 C118.5,78.8 123.7,80.3 128.3,81.9 L123.2,91.8 L123.2,91.8 Z M109.8,46.5 C109.8,33.9 107.7,26 101.3,26 C95.4,26 92.4,34.1 92.4,46.8 C92.3,60.5 94.9,70.2 101.3,70.2 C107.3,70.2 109.8,60.5 109.8,46.5 L109.8,46.5 Z" id="Shape" fill="#600C0C"></path>
                    <path d="M137.6,61 C137.8,68.6 142.2,71.4 148,71.4 C151.7,71.4 155,70.6 157.3,69.8 L159.1,79.2 C155.7,80.5 150.6,81.4 145.6,81.4 C132.3,81.4 125,72.6 125,57.3 C125,40.9 133.5,31.1 144.6,31.1 C155.1,31.1 161.2,39.4 161.2,54.2 C161.2,57.7 161.1,59.6 160.8,61 L137.6,61 L137.6,61 Z M149.3,51.8 C149.3,45.5 147.7,40.6 143.8,40.6 C139.5,40.6 137.8,46.9 137.7,51.8 L149.3,51.8 L149.3,51.8 Z" id="Shape" fill="#272223"></path>
                    <path d="M163.6,46.6 C163.6,41.2 163.3,36.5 163.2,31.9 L174.5,31.9 L175.1,37.5 L175.3,37.5 C177.9,33.6 182.1,31.1 187.2,31.1 C196.5,31.1 200.2,38.5 200.2,49.4 L200.2,80.8 L187.1,80.8 L187.1,50.2 C187.1,46 186.1,42.1 182.3,42.1 C180.1,42.1 178.3,43.6 177.4,46.5 C177,47.5 176.7,49.1 176.7,51 L176.7,80.8 L163.6,80.8 L163.6,46.6 L163.6,46.6 Z" id="Shape" fill="#272223"></path>
                    <path d="M239.9,11.6 L239.9,66.3 C239.9,71 240.1,76.3 240.3,80.8 L229,80.8 L228.3,75.3 L228.1,75.3 C226.3,78.7 222.4,81.6 217.9,81.6 C207.5,81.6 202.7,70.1 202.7,56.4 C202.7,39.4 210.1,31.1 218.4,31.1 C222.7,31.1 225.4,33.2 226.6,36 L226.8,36 L226.8,11.6 L239.9,11.6 L239.9,11.6 Z M226.8,50.7 C226.8,49.8 226.8,48.8 226.7,47.8 C226.2,44.8 224.6,42.1 222,42.1 C217.4,42.1 215.7,48.8 215.7,56.7 C215.7,66 218.2,70.9 221.9,70.9 C223.5,70.9 225.4,70 226.4,66.6 C226.7,65.9 226.8,64.8 226.8,63.6 L226.8,50.7 L226.8,50.7 Z" id="Shape" fill="#272223"></path>
                </g>
                <path d="M159.5,77.5 C159.6,77.6 159.7,77.6 159.8,77.7 L159.8,77.9 C157.7,78.8 155.4,79.5 153.4,80.3 L155.6,85 C158.4,83.9 161.6,82.2 164,80.8 C164.7,80.4 165.3,80.1 165.6,80.1 C168.1,80.1 170.2,79.2 171.8,77.4 L159.5,77.4 L159.5,77.5 Z" id="Shape" fill="#600C0C" fill-rule="nonzero"></path>
                <polygon id="Shape" fill="#000000" fill-rule="nonzero" points="22 31 22 47.1 37.6 47.1 37.6 53 22 53 22 69.3 16 69.3 16 53 0.4 53 0.4 47.1 16 47.1 16 31"></polygon>
            </g>
            <g id="logo" transform="translate(0.000000, 2.000000)" fill-rule="nonzero" fill="#61DAFB">
                <path d="M167.760976,74.5 C167.760976,63.4187643 153.863415,52.9171625 132.556098,46.4048055 C137.473171,24.7196796 135.287805,7.46704805 125.658537,1.94347826 C123.439024,0.647826087 120.843902,0.0340961098 118.009756,0.0340961098 L118.009756,7.6375286 C119.580488,7.6375286 120.843902,7.94439359 121.902439,8.52402746 C126.546341,11.183524 128.560976,21.3100686 126.990244,34.3347826 C126.614634,37.5398169 126,40.9153318 125.24878,44.3590389 C118.556098,42.7224256 111.24878,41.4608696 103.565854,40.6425629 C98.9560976,34.3347826 94.1756098,28.6066362 89.3609756,23.594508 C100.492683,13.2633867 110.941463,7.60343249 118.043902,7.60343249 L118.043902,0 C108.653659,0 96.3609756,6.68283753 83.9317073,18.2755149 C71.502439,6.75102975 59.2097561,0.136384439 49.8195122,0.136384439 L49.8195122,7.73981693 C56.8878049,7.73981693 67.3707317,13.3656751 78.502439,23.6286041 C73.7219512,28.6407323 68.9414634,34.3347826 64.4,40.6425629 C56.6829268,41.4608696 49.3756098,42.7224256 42.6829268,44.393135 C41.897561,40.983524 41.3170732,37.6762014 40.9073171,34.5052632 C39.302439,21.4805492 41.2829268,11.3540046 45.8926829,8.6604119 C46.9170732,8.04668192 48.2487805,7.77391304 49.8195122,7.77391304 L49.8195122,0.170480549 C46.9512195,0.170480549 44.3560976,0.784210526 42.102439,2.0798627 C32.5073171,7.60343249 30.3560976,24.821968 35.3073171,46.4389016 C14.0682927,52.9853547 0.23902439,63.4528604 0.23902439,74.5 C0.23902439,85.5812357 14.1365854,96.0828375 35.4439024,102.595195 C30.5268293,124.28032 32.7121951,141.532952 42.3414634,147.056522 C44.5609756,148.352174 47.1560976,148.965904 50.0243902,148.965904 C59.4146341,148.965904 71.7073171,142.283066 84.1365854,130.690389 C96.5658537,142.214874 108.858537,148.829519 118.24878,148.829519 C121.117073,148.829519 123.712195,148.215789 125.965854,146.920137 C135.560976,141.396568 137.712195,124.178032 132.760976,102.561098 C153.931707,96.0487414 167.760976,85.5471396 167.760976,74.5 L167.760976,74.5 Z M123.302439,51.7578947 C122.039024,56.1562929 120.468293,60.6910755 118.692683,65.2258581 C117.292683,62.4981693 115.82439,59.7704805 114.219512,57.0427918 C112.64878,54.315103 110.97561,51.6556064 109.302439,49.0643021 C114.15122,49.7803204 118.829268,50.6668192 123.302439,51.7578947 Z M107.663415,88.0702517 C105,92.6732265 102.268293,97.0375286 99.4341463,101.094966 C94.3463415,101.538215 89.1902439,101.776888 84,101.776888 C78.8439024,101.776888 73.6878049,101.538215 68.6341463,101.129062 C65.8,97.0716247 63.0341463,92.7414188 60.3707317,88.17254 C57.7756098,83.7059497 55.4195122,79.171167 53.2682927,74.6022883 C55.3853659,70.0334096 57.7756098,65.4645309 60.3365854,60.9979405 C63,56.3949657 65.7317073,52.0306636 68.5658537,47.9732265 C73.6536585,47.5299771 78.8097561,47.2913043 84,47.2913043 C89.1560976,47.2913043 94.3121951,47.5299771 99.3658537,47.9391304 C102.2,51.9965675 104.965854,56.3267735 107.629268,60.8956522 C110.22439,65.3622426 112.580488,69.8970252 114.731707,74.4659039 C112.580488,79.0347826 110.22439,83.6036613 107.663415,88.0702517 Z M118.692683,83.6377574 C120.536585,88.2066362 122.107317,92.7755149 123.404878,97.2080092 C118.931707,98.2990847 114.219512,99.2196796 109.336585,99.9356979 C111.009756,97.3102975 112.682927,94.6167048 114.253659,91.8549199 C115.82439,89.1272311 117.292683,86.3654462 118.692683,83.6377574 Z M84.0682927,120.018307 C80.8926829,116.74508 77.7170732,113.096796 74.5756098,109.107551 C77.6487805,109.243936 80.7902439,109.346224 83.9658537,109.346224 C87.1756098,109.346224 90.3512195,109.278032 93.4585366,109.107551 C90.3853659,113.096796 87.2097561,116.74508 84.0682927,120.018307 Z M58.6634146,99.9356979 C53.8146341,99.2196796 49.1365854,98.3331808 44.6634146,97.2421053 C45.9268293,92.8437071 47.497561,88.3089245 49.2731707,83.7741419 C50.6731707,86.5018307 52.1414634,89.2295195 53.7463415,91.9572082 C55.3512195,94.684897 56.9902439,97.3443936 58.6634146,99.9356979 Z M83.897561,28.9816934 C87.0731707,32.2549199 90.2487805,35.9032037 93.3902439,39.8924485 C90.3170732,39.7560641 87.1756098,39.6537757 84,39.6537757 C80.7902439,39.6537757 77.6146341,39.721968 74.5073171,39.8924485 C77.5804878,35.9032037 80.7560976,32.2549199 83.897561,28.9816934 Z M58.6292683,49.0643021 C56.9560976,51.6897025 55.2829268,54.3832952 53.7121951,57.1450801 C52.1414634,59.8727689 50.6731707,62.6004577 49.2731707,65.3281465 C47.4292683,60.7592677 45.8585366,56.190389 44.5609756,51.7578947 C49.0341463,50.7009153 53.7463415,49.7803204 58.6292683,49.0643021 Z M27.7268293,91.7526316 C15.6390244,86.604119 7.8195122,79.8530892 7.8195122,74.5 C7.8195122,69.1469108 15.6390244,62.3617849 27.7268293,57.2473684 C30.6634146,55.9858124 33.8731707,54.8606407 37.1853659,53.8036613 C39.1317073,60.4864989 41.6926829,67.4421053 44.8682927,74.5681922 C41.7268293,81.6601831 39.2,88.5816934 37.2878049,95.2304348 C33.9073171,94.1734554 30.697561,93.0141876 27.7268293,91.7526316 Z M46.097561,140.475973 C41.4536585,137.816476 39.4390244,127.689931 41.0097561,114.665217 C41.3853659,111.460183 42,108.084668 42.7512195,104.640961 C49.4439024,106.277574 56.7512195,107.53913 64.4341463,108.357437 C69.0439024,114.665217 73.8243902,120.393364 78.6390244,125.405492 C67.5073171,135.736613 57.0585366,141.396568 49.9560976,141.396568 C48.4195122,141.362471 47.1219512,141.055606 46.097561,140.475973 L46.097561,140.475973 Z M127.092683,114.494737 C128.697561,127.519451 126.717073,137.645995 122.107317,140.339588 C121.082927,140.953318 119.75122,141.226087 118.180488,141.226087 C111.112195,141.226087 100.629268,135.600229 89.497561,125.3373 C94.2780488,120.325172 99.0585366,114.631121 103.6,108.323341 C111.317073,107.505034 118.62439,106.243478 125.317073,104.572769 C126.102439,108.016476 126.717073,111.323799 127.092683,114.494737 L127.092683,114.494737 Z M140.239024,91.7526316 C137.302439,93.0141876 134.092683,94.1393593 130.780488,95.1963387 C128.834146,88.5135011 126.273171,81.5578947 123.097561,74.4318078 C126.239024,67.3398169 128.765854,60.4183066 130.678049,53.7695652 C134.058537,54.8265446 137.268293,55.9858124 140.273171,57.2473684 C152.360976,62.395881 160.180488,69.1469108 160.180488,74.5 C160.146341,79.8530892 152.326829,86.6382151 140.239024,91.7526316 L140.239024,91.7526316 Z" id="Shape"></path>
                <ellipse id="Oval" cx="83.9658537" cy="74.5" rx="15.604878" ry="15.5819222"></ellipse>
            </g>
        </g>
    </g>
</svg>
